<?xml version="1.0" encoding="UTF-8" standalone="no"?>
<!-- Created with Inkscape (http://www.inkscape.org/) -->

<svg
   xmlns:dc="http://purl.org/dc/elements/1.1/"
   xmlns:cc="http://creativecommons.org/ns#"
   xmlns:rdf="http://www.w3.org/1999/02/22-rdf-syntax-ns#"
   xmlns:svg="http://www.w3.org/2000/svg"
   xmlns="http://www.w3.org/2000/svg"
   xmlns:xlink="http://www.w3.org/1999/xlink"
   xmlns:sodipodi="http://sodipodi.sourceforge.net/DTD/sodipodi-0.dtd"
   xmlns:inkscape="http://www.inkscape.org/namespaces/inkscape"
   version="1.1"
   id="svg10"
   width="105.5mm"
   height="80mm"
   viewBox="0 0 398.74014 302.3622"
   sodipodi:docname="testLogo.svg"
   inkscape:version="0.92.4 (5da689c313, 2019-01-14)">
  <metadata
     id="metadata16">
    <rdf:RDF>
      <cc:Work
         rdf:about="">
        <dc:format>image/svg+xml</dc:format>
        <dc:type
           rdf:resource="http://purl.org/dc/dcmitype/StillImage" />
        <dc:title></dc:title>
      </cc:Work>
    </rdf:RDF>
  </metadata>
  <defs
     id="defs14">
    <clipPath
       clipPathUnits="userSpaceOnUse"
       id="clipPath50">
      <use
         x="0"
         y="0"
         xlink:href="#g46"
         id="use52"
         width="100%"
         height="100%" />
    </clipPath>
  </defs>
  <sodipodi:namedview
     pagecolor="#ffffff"
     bordercolor="#666666"
     borderopacity="1"
     objecttolerance="10"
     gridtolerance="10"
     guidetolerance="10"
     inkscape:pageopacity="0"
     inkscape:pageshadow="2"
     inkscape:window-width="1920"
     inkscape:window-height="1001"
     id="namedview12"
     showgrid="false"
     inkscape:zoom="1.5235794"
     inkscape:cx="168.28166"
     inkscape:cy="242.57038"
     inkscape:window-x="-9"
     inkscape:window-y="-9"
     inkscape:window-maximized="1"
     inkscape:current-layer="svg10"
     units="mm" />
  <g
     id="g39"
     transform="translate(-288.9078,-221.15264)">
    <g
       id="g48"
       clip-path="url(#clipPath50)">
      <g
         inkscape:label="Clip"
         id="g46" />
    </g>
    <g
       id="g57">
      <path
         style="fill:#0288d1;stroke:#0288d1;stroke-width:1px;stroke-linecap:butt;stroke-linejoin:miter;stroke-opacity:1"
         d="m 673.875,221.82227 c -3.32562,-0.0853 -6.77618,0.0865 -9.69531,0.61132 -17.67481,4.36068 -34.65374,9.30131 -51.98047,14.82227 -14.51668,4.76375 -26.94412,9.99109 -38.9082,17.19141 -11.33199,6.96164 -12.68667,8.47025 -21.00196,16.82421 -6.26547,5.87871 -9.39833,10.48214 -14.27148,17.28907 -5.95606,7.73515 -9.93864,16.28243 -14.1543,24.01757 -6.32484,12.13519 -6.45657,11.1956 -10.67578,16.35938 -3.54523,3.47793 -10.24877,6.77051 -13.4043,7.62305 -1.78666,0.63927 -8.22961,0.88492 -13.23632,1.04101 -4.25781,-0.16502 -8.66272,-0.41739 -10.07813,-0.92383 -3.15553,-0.85254 -9.85907,-4.14707 -13.4043,-7.625 -4.21921,-5.16378 -4.34899,-4.22418 -10.67383,-16.35937 -4.21566,-7.73515 -8.20018,-16.28243 -14.15624,-24.01758 -4.87316,-6.80693 -8.00602,-11.4084 -14.27149,-17.28711 -8.31529,-8.35396 -9.66801,-9.86258 -21,-16.82422 -11.96408,-7.20032 -24.39348,-12.42961 -38.91016,-17.19336 -17.32673,-5.52096 -34.3037,-10.46158 -51.97851,-14.82226 -3.89218,-0.69972 -8.72975,-0.7721 -12.95508,-0.44336 -2.56226,0.44477 -4.29841,1.51796 -6.03516,3.24805 -1.40199,1.60503 -2.5422,2.86222 -3.24804,5.68554 l -0.23242,282.73047 c 0.85794,2.23093 1.69149,3.53709 3.42382,5.45313 2.07883,1.89512 3.66331,2.80284 6.32227,3.5957 l 127.57227,-0.0586 c 2.9504,-2.29017 4.80716,-3.70024 6.49804,-6.26368 1.37299,-4.1383 0.56876,-7.39589 0.11524,-12.76367 -1.32137,-15.63965 -2.97124,-30.13162 -6.67188,-47.16601 -4.08005,-14.62218 -8.24185,-27.52029 -14.70117,-42.88086 -4.71489,-10.07091 -9.92158,-20.46994 -16.27734,-31.60743 -6.53265,-10.38031 -12.81851,-21.49854 -22.0586,-32.125 -6.0064,-8.46998 -14.30983,-16.69407 -21.46484,-25.16406 -1.48241,-2.32227 -1.72636,-3.65168 -0.45117,-5.13476 l 9.97851,-10.20899 c 1.77908,-1.59537 4.19732,-0.49434 5.57031,0.46289 15.16089,8.58601 28.3482,20.07251 42.46485,29.47071 14.23267,8.9341 17.6752,11.02407 27.38281,16.36132 9.74629,4.95049 17.86864,7.81268 26.80274,9.97852 5.99473,1.62438 7.58027,1.85498 13.45898,2.7832 7.73515,0.61881 13.26602,0.54225 21.11719,-0.11523 5.87871,-0.92822 7.46424,-1.16078 13.45898,-2.78516 8.9341,-2.16584 17.05645,-5.02802 26.80274,-9.97851 9.70761,-5.33725 13.14819,-7.42528 27.38085,-16.35938 14.11665,-9.3982 27.30591,-20.88469 42.4668,-29.4707 1.37299,-0.95723 3.78928,-2.06022 5.56836,-0.46485 l 9.97852,10.21094 c 1.27519,1.48308 1.03319,2.81054 -0.44922,5.13282 -7.15501,8.46999 -15.45845,16.69407 -21.46485,25.16406 -9.24009,10.62645 -15.52594,21.74468 -22.05859,32.125 -6.35576,11.13748 -11.56441,21.53651 -16.2793,31.60742 -6.45932,15.36057 -10.62112,28.26063 -14.70117,42.88281 -3.70064,17.03439 -5.3505,31.52441 -6.67187,47.16406 -0.45352,5.36778 -1.25581,8.62538 0.11718,12.76368 1.69088,2.56344 3.5457,3.97545 6.4961,6.26562 l 127.57226,0.0586 c 2.65896,-0.79285 4.24539,-1.70253 6.32422,-3.59765 1.73233,-1.91604 2.56394,-3.2222 3.42188,-5.45313 l -0.23047,-282.72851 c -0.70584,-2.82332 -1.84801,-4.08052 -3.25,-5.68555 -1.73675,-1.73009 -3.47094,-2.80523 -6.0332,-3.25 -1.05634,-0.0822 -2.15123,-0.13758 -3.25977,-0.16601 z"
         id="path20"
         inkscape:connector-curvature="0" />
    </g>
  </g>
  <circle
     id="path62"
     cx="198.48621"
     cy="43.847343"
     r="40"
     style="fill:#1a0028;stroke:#1a0028" />
</svg>
